<?xml version="1.0" standalone="no"?>
<!DOCTYPE svg PUBLIC "-//W3C//DTD SVG 20010904//EN"
 "http://www.w3.org/TR/2001/REC-SVG-20010904/DTD/svg10.dtd">
<svg version="1.0" xmlns="http://www.w3.org/2000/svg"
 width="15.000000pt" height="29.000000pt" viewBox="0 0 15.000000 29.000000"
 preserveAspectRatio="xMidYMid meet">

<g transform="translate(0.000000,29.000000) scale(0.100000,-0.100000)"
fill="#000000" stroke="none">
<path d="M67 262 c-10 -10 -17 -33 -17 -50 0 -27 -4 -32 -25 -32 -20 0 -25 -5
-25 -25 0 -20 5 -25 25 -25 24 0 25 -3 25 -60 0 -53 2 -60 20 -60 18 0 20 7
20 60 0 57 1 60 25 60 20 0 25 5 25 25 0 20 -5 25 -26 25 -21 0 -25 4 -22 23
2 12 13 26 26 32 12 5 22 18 22 27 0 24 -51 24 -73 0z"/>
</g>
</svg>
