<?xml version="1.0" standalone="no"?>
<!DOCTYPE svg PUBLIC "-//W3C//DTD SVG 20010904//EN"
 "http://www.w3.org/TR/2001/REC-SVG-20010904/DTD/svg10.dtd">
<svg version="1.0" xmlns="http://www.w3.org/2000/svg"
 width="27.000000pt" height="26.000000pt" viewBox="0 0 27.000000 26.000000"
 preserveAspectRatio="xMidYMid meet">

<g transform="translate(0.000000,26.000000) scale(0.100000,-0.100000)"
fill="#000000" stroke="none">
<path d="M22 252 c-9 -6 -12 -38 -10 -123 l3 -114 120 0 120 0 3 109 c2 71 -1
113 -9 122 -13 16 -204 20 -227 6z m213 -47 c0 -14 -8 -21 -27 -23 -24 -3 -28
0 -28 23 0 23 4 26 28 23 19 -2 27 -9 27 -23z m-61 -41 c20 -19 20 -34 0 -62
-18 -26 -50 -28 -76 -5 -20 18 -23 36 -8 64 13 23 62 26 84 3z m-114 -38 c0
-62 84 -92 130 -46 11 11 20 31 20 45 0 16 6 25 15 25 13 0 15 -11 13 -57 l-3
-58 -100 0 -100 0 -3 58 c-2 46 0 57 13 57 9 0 15 -9 15 -24z"/>
</g>
</svg>
