<?xml version="1.0" standalone="no"?>
<!DOCTYPE svg PUBLIC "-//W3C//DTD SVG 20010904//EN"
 "http://www.w3.org/TR/2001/REC-SVG-20010904/DTD/svg10.dtd">
<svg version="1.0" xmlns="http://www.w3.org/2000/svg"
 width="27.000000pt" height="22.000000pt" viewBox="0 0 27.000000 22.000000"
 preserveAspectRatio="xMidYMid meet">

<g transform="translate(0.000000,22.000000) scale(0.100000,-0.100000)"
fill="#000000" stroke="none">
<path d="M151 201 c-12 -12 -21 -28 -21 -37 0 -20 -41 -12 -82 17 l-27 20 1
-46 c0 -30 6 -49 14 -52 8 -3 11 -10 8 -15 -4 -6 4 -19 17 -29 l24 -18 -33 -7
c-45 -9 -22 -24 39 -24 64 0 108 31 132 95 11 28 24 58 29 69 7 13 6 16 -3 10
-8 -5 -11 -2 -7 7 4 9 -1 15 -11 16 -9 1 -26 4 -38 8 -15 5 -27 1 -42 -14z"/>
</g>
</svg>
